<?xml version="1.0"?>
<svg xmlns="http://www.w3.org/2000/svg" id="filled_outline" data-name="filled outline" viewBox="0 0 512 512" width="512" height="512"><path d="M424,248v26.43994A241.4224,241.4224,0,0,1,401.35,376.54a123.82715,123.82715,0,0,1-214.25,17.78L168.62,367.45,48,192H24V64A37.24211,37.24211,0,0,1,57.93,85.85L88,152,236.72,306.91992,280,352l23.11-104Z" style="fill:#ffceb6"/><path d="M424,152v96H368V232h-8a32.004,32.004,0,0,1-32-32V168a47.94823,47.94823,0,0,1,48-48h16A32.004,32.004,0,0,1,424,152Z" style="fill:#ffceb6"/><path d="M424,248v26.43994A241.4224,241.4224,0,0,1,401.35,376.54a123.89051,123.89051,0,0,1-15.12,24.49L280,352l23.11-104Z" style="fill:#548aff"/><path d="M424,152v56H400l-32-32V152H330.73A48.026,48.026,0,0,1,376,120h16A32.004,32.004,0,0,1,424,152Z" style="fill:#b1712c"/><path d="M386.23,401.03a123.82776,123.82776,0,0,1-199.13-6.71L168.62,367.45l68.1-60.53L280,352Z" style="fill:#ffc431"/><path d="M88,152,48,192H24V64A37.24211,37.24211,0,0,1,57.93,85.85Z" style="fill:#d1e4ff"/><path d="M447.99994,120H448a40,40,0,0,1,40,40V280a0,0,0,0,1,0,0h-.00006A63.99994,63.99994,0,0,1,424,216.00006V143.99994A23.99994,23.99994,0,0,1,447.99994,120Z" style="fill:#a36522"/><path d="M350.05888,238.05888,217.94112,105.94112a33.9411,33.9411,0,0,0-24-9.94112h0A33.94109,33.94109,0,0,0,160,129.94109v0a33.9411,33.9411,0,0,0,9.94112,24L302.05888,286.05888a33.9411,33.9411,0,0,0,24,9.94112h.00005A33.94109,33.94109,0,0,0,360,262.05891v-.00005A33.9411,33.9411,0,0,0,350.05888,238.05888Z" style="fill:#ffceb6"/><path d="M448,112a31.97473,31.97473,0,0,0-26.08014,13.49225A39.90567,39.90567,0,0,0,392,112H376a56.06353,56.06353,0,0,0-56,56v28.68652l-96.40234-96.40234a41.941,41.941,0,0,0-59.31348,59.31348L287.23785,282.55127,275.42969,335.6875,94.71741,147.4458,65.21387,82.53809A45.36687,45.36687,0,0,0,24,56a7.99977,7.99977,0,0,0-8,8V192a7.99977,7.99977,0,0,0,8,8H43.79181L180.50537,398.856A131.74369,131.74369,0,0,0,226.21155,440H128v16H440V440H351.90887a131.97635,131.97635,0,0,0,56.69025-60.08057A251.08742,251.08742,0,0,0,432,274.43848V261.18469A71.88472,71.88472,0,0,0,488,288a7.99977,7.99977,0,0,0,8-8V160A48.05436,48.05436,0,0,0,448,112ZM368,224h-8a24.02687,24.02687,0,0,1-24-24V168a40.02741,40.02741,0,0,1,.80493-8H360v16a7.99877,7.99877,0,0,0,2.34326,5.65674l32,32A7.99877,7.99877,0,0,0,400,216h16v24H376v-8A7.99977,7.99977,0,0,0,368,224Zm8-96h16a24.02687,24.02687,0,0,1,24,24v48H403.31348L376,172.68652V152a7.99977,7.99977,0,0,0-8-8H344.02185A39.962,39.962,0,0,1,376,128Zm-208,1.94092a25.94129,25.94129,0,0,1,44.28418-18.34326L344.40234,243.71582a25.94129,25.94129,0,0,1-36.68652,36.68652L175.59766,148.28418A25.77164,25.77164,0,0,1,168,129.94092Zm57.19147,176.51831-55.11255,48.989L58.36218,192.95129l29.52124-29.52124ZM32,73.11963A29.34167,29.34167,0,0,1,50.64844,89.15918l27.77441,61.104L44.68652,184H32ZM289.1377,440a115.802,115.802,0,0,1-95.44776-50.2085l-14.47583-21.05566,57.06629-50.72559L274.229,357.54a7.97653,7.97653,0,0,0,2.42218,1.71558l-.00372.008,96.527,44.55091A116.25305,116.25305,0,0,1,289.1377,440ZM416,274.43848a234.98161,234.98161,0,0,1-21.8999,98.71484,114.80413,114.80413,0,0,1-10.41077,17.89233l-94.48059-43.60644,11.54163-51.9375A41.93943,41.93943,0,0,0,368,262.05908,42.54091,42.54091,0,0,0,367.56476,256H416Zm64-3.0083A56.08767,56.08767,0,0,1,432,216V144a16.01833,16.01833,0,0,1,16-16,32.036,32.036,0,0,1,32,32Z"/><rect x="96" y="440" width="16" height="16"/><rect x="456" y="440" width="16" height="16"/></svg>
